dataset
version=1
nRows=31
nColumns=39
inDegrees=no
endheader
time	sternoclavicular_r2	sternoclavicular_r3	unrotscap_r3	unrotscap_r2	acromioclavicular_r2	acromioclavicular_r3	acromioclavicular_r1	unrothum_r1	unrothum_r3	unrothum_r2	elv_angle	shoulder_elv	shoulder1_r2	shoulder_rot	elbow_flexion	pro_sup	deviation	flexion	cmc_abduction	cmc_flexion	mp_flexion	ip_flexion	mcp2_flexion	mcp2_abduction	pm2_flexion	md2_flexion	mcp3_flexion	mcp3_abduction	pm3_flexion	md3_flexion	mcp4_flexion	mcp4_abduction	pm4_flexion	md4_flexion	mcp5_flexion	mcp5_abduction	pm5_flexion	md5_flexion
4.940000	-0.019526	-0.373526	0.200699	0.104350	0.063141	0.200232	-0.116172	0.013162	0.063032	0.084778	0.091933	0.027437	0.146525	0.146525	2.082803	1.268656	0.000000	0.000000	0.000000	0.000000	0.000000	0.000000	0.000000	0.000000	0.000000	0.000000	0.000000	0.000000	0.000000	0.000000	0.000000	0.000000	0.000000	0.000000	0.000000	0.000000	0.000000	0.000000
4.945000	-0.019397	-0.373252	0.200391	0.103948	0.062497	0.201359	-0.115092	0.013796	0.064153	0.083800	0.091463	0.027437	0.146525	0.146525	2.085594	1.268693	0.000000	0.000000	0.000000	0.000000	0.000000	0.000000	0.000000	0.000000	0.000000	0.000000	0.000000	0.000000	0.000000	0.000000	0.000000	0.000000	0.000000	0.000000	0.000000	0.000000	0.000000	0.000000
4.950000	-0.019268	-0.372978	0.200080	0.103545	0.061853	0.202481	-0.114010	0.014432	0.065273	0.082823	0.090994	0.027437	0.146525	0.146525	2.088361	1.268731	0.000000	0.000000	0.000000	0.000000	0.000000	0.000000	0.000000	0.000000	0.000000	0.000000	0.000000	0.000000	0.000000	0.000000	0.000000	0.000000	0.000000	0.000000	0.000000	0.000000	0.000000	0.000000
4.955000	-0.019141	-0.372701	0.199767	0.103143	0.061211	0.203598	-0.112927	0.015067	0.066391	0.081847	0.090525	0.027437	0.146525	0.146525	2.091103	1.268771	0.000000	0.000000	0.000000	0.000000	0.000000	0.000000	0.000000	0.000000	0.000000	0.000000	0.000000	0.000000	0.000000	0.000000	0.000000	0.000000	0.000000	0.000000	0.000000	0.000000	0.000000	0.000000
4.960000	-0.019016	-0.372424	0.199452	0.102741	0.060570	0.204711	-0.111845	0.015703	0.067506	0.080873	0.090057	0.027437	0.146525	0.146525	2.093819	1.268812	0.000000	0.000000	0.000000	0.000000	0.000000	0.000000	0.000000	0.000000	0.000000	0.000000	0.000000	0.000000	0.000000	0.000000	0.000000	0.000000	0.000000	0.000000	0.000000	0.000000	0.000000	0.000000
4.965000	-0.018892	-0.372145	0.199135	0.102340	0.059930	0.205817	-0.110762	0.016337	0.068619	0.079901	0.089589	0.027437	0.146525	0.146525	2.096509	1.268854	0.000000	0.000000	0.000000	0.000000	0.000000	0.000000	0.000000	0.000000	0.000000	0.000000	0.000000	0.000000	0.000000	0.000000	0.000000	0.000000	0.000000	0.000000	0.000000	0.000000	0.000000	0.000000
4.970000	-0.018769	-0.371866	0.198817	0.101940	0.059293	0.206919	-0.109681	0.016970	0.069730	0.078932	0.089124	0.027437	0.146525	0.146525	2.099171	1.268899	0.000000	0.000000	0.000000	0.000000	0.000000	0.000000	0.000000	0.000000	0.000000	0.000000	0.000000	0.000000	0.000000	0.000000	0.000000	0.000000	0.000000	0.000000	0.000000	0.000000	0.000000	0.000000
4.975000	-0.018648	-0.371585	0.198498	0.101541	0.058657	0.208014	-0.108602	0.017602	0.070838	0.077966	0.088660	0.027437	0.146525	0.146525	2.101803	1.268945	0.000000	0.000000	0.000000	0.000000	0.000000	0.000000	0.000000	0.000000	0.000000	0.000000	0.000000	0.000000	0.000000	0.000000	0.000000	0.000000	0.000000	0.000000	0.000000	0.000000	0.000000	0.000000
4.980000	-0.018529	-0.371304	0.198178	0.101144	0.058025	0.209103	-0.107525	0.018230	0.071943	0.077004	0.088198	0.027437	0.146525	0.146525	2.104407	1.268992	0.000000	0.000000	0.000000	0.000000	0.000000	0.000000	0.000000	0.000000	0.000000	0.000000	0.000000	0.000000	0.000000	0.000000	0.000000	0.000000	0.000000	0.000000	0.000000	0.000000	0.000000	0.000000
4.985000	-0.018412	-0.371022	0.197859	0.100748	0.057394	0.210186	-0.106450	0.018856	0.073045	0.076045	0.087738	0.027437	0.146525	0.146525	2.106979	1.269041	0.000000	0.000000	0.000000	0.000000	0.000000	0.000000	0.000000	0.000000	0.000000	0.000000	0.000000	0.000000	0.000000	0.000000	0.000000	0.000000	0.000000	0.000000	0.000000	0.000000	0.000000	0.000000
4.990000	-0.018296	-0.370739	0.197539	0.100353	0.056767	0.211263	-0.105379	0.019478	0.074144	0.075092	0.087280	0.027437	0.146525	0.146525	2.109521	1.269092	0.000000	0.000000	0.000000	0.000000	0.000000	0.000000	0.000000	0.000000	0.000000	0.000000	0.000000	0.000000	0.000000	0.000000	0.000000	0.000000	0.000000	0.000000	0.000000	0.000000	0.000000	0.000000
4.995000	-0.018182	-0.370455	0.197221	0.099961	0.056143	0.212333	-0.104313	0.020095	0.075240	0.074142	0.086825	0.027437	0.146525	0.146525	2.112030	1.269144	0.000000	0.000000	0.000000	0.000000	0.000000	0.000000	0.000000	0.000000	0.000000	0.000000	0.000000	0.000000	0.000000	0.000000	0.000000	0.000000	0.000000	0.000000	0.000000	0.000000	0.000000	0.000000
5.000000	-0.018070	-0.370171	0.196903	0.099570	0.055522	0.213396	-0.103251	0.020709	0.076333	0.073199	0.086374	0.027437	0.146525	0.146525	2.114506	1.269198	0.000000	0.000000	0.000000	0.000000	0.000000	0.000000	0.000000	0.000000	0.000000	0.000000	0.000000	0.000000	0.000000	0.000000	0.000000	0.000000	0.000000	0.000000	0.000000	0.000000	0.000000	0.000000
5.005000	-0.017960	-0.369887	0.196587	0.099182	0.054905	0.214453	-0.102194	0.021317	0.077422	0.072261	0.085925	0.027437	0.146525	0.146525	2.116949	1.269254	0.000000	0.000000	0.000000	0.000000	0.000000	0.000000	0.000000	0.000000	0.000000	0.000000	0.000000	0.000000	0.000000	0.000000	0.000000	0.000000	0.000000	0.000000	0.000000	0.000000	0.000000	0.000000
5.010000	-0.017852	-0.369602	0.196273	0.098796	0.054291	0.215502	-0.101143	0.021919	0.078508	0.071328	0.085480	0.027437	0.146525	0.146525	2.119357	1.269311	0.000000	0.000000	0.000000	0.000000	0.000000	0.000000	0.000000	0.000000	0.000000	0.000000	0.000000	0.000000	0.000000	0.000000	0.000000	0.000000	0.000000	0.000000	0.000000	0.000000	0.000000	0.000000
5.015000	-0.017746	-0.369317	0.195961	0.098413	0.053682	0.216544	-0.100098	0.022515	0.079590	0.070403	0.085039	0.027437	0.146525	0.146525	2.121731	1.269370	0.000000	0.000000	0.000000	0.000000	0.000000	0.000000	0.000000	0.000000	0.000000	0.000000	0.000000	0.000000	0.000000	0.000000	0.000000	0.000000	0.000000	0.000000	0.000000	0.000000	0.000000	0.000000
5.020000	-0.017642	-0.369031	0.195652	0.098032	0.053076	0.217579	-0.099060	0.023104	0.080669	0.069484	0.084602	0.027437	0.146525	0.146525	2.124069	1.269430	0.000000	0.000000	0.000000	0.000000	0.000000	0.000000	0.000000	0.000000	0.000000	0.000000	0.000000	0.000000	0.000000	0.000000	0.000000	0.000000	0.000000	0.000000	0.000000	0.000000	0.000000	0.000000
5.025000	-0.017540	-0.368746	0.195346	0.097654	0.052475	0.218606	-0.098030	0.023687	0.081745	0.068571	0.084169	0.027437	0.146525	0.146525	2.126372	1.269492	0.000000	0.000000	0.000000	0.000000	0.000000	0.000000	0.000000	0.000000	0.000000	0.000000	0.000000	0.000000	0.000000	0.000000	0.000000	0.000000	0.000000	0.000000	0.000000	0.000000	0.000000	0.000000
5.030000	-0.017440	-0.368461	0.195043	0.097279	0.051878	0.219627	-0.097007	0.024261	0.082816	0.067667	0.083740	0.027437	0.146525	0.146525	2.128638	1.269556	0.000000	0.000000	0.000000	0.000000	0.000000	0.000000	0.000000	0.000000	0.000000	0.000000	0.000000	0.000000	0.000000	0.000000	0.000000	0.000000	0.000000	0.000000	0.000000	0.000000	0.000000	0.000000
5.035000	-0.017342	-0.368176	0.194744	0.096908	0.051286	0.220639	-0.095993	0.024828	0.083885	0.066770	0.083316	0.027437	0.146525	0.146525	2.130867	1.269621	0.000000	0.000000	0.000000	0.000000	0.000000	0.000000	0.000000	0.000000	0.000000	0.000000	0.000000	0.000000	0.000000	0.000000	0.000000	0.000000	0.000000	0.000000	0.000000	0.000000	0.000000	0.000000
5.040000	-0.017247	-0.367891	0.194449	0.096539	0.050698	0.221645	-0.094988	0.025386	0.084949	0.065881	0.082897	0.027437	0.146525	0.146525	2.133059	1.269688	0.000000	0.000000	0.000000	0.000000	0.000000	0.000000	0.000000	0.000000	0.000000	0.000000	0.000000	0.000000	0.000000	0.000000	0.000000	0.000000	0.000000	0.000000	0.000000	0.000000	0.000000	0.000000
5.045000	-0.017153	-0.367607	0.194159	0.096174	0.050115	0.222643	-0.093991	0.025935	0.086010	0.065000	0.082483	0.027437	0.146525	0.146525	2.135214	1.269757	0.000000	0.000000	0.000000	0.000000	0.000000	0.000000	0.000000	0.000000	0.000000	0.000000	0.000000	0.000000	0.000000	0.000000	0.000000	0.000000	0.000000	0.000000	0.000000	0.000000	0.000000	0.000000
5.050000	-0.017062	-0.367323	0.193873	0.095812	0.049537	0.223633	-0.093005	0.026476	0.087067	0.064127	0.082074	0.027437	0.146525	0.146525	2.137330	1.269827	0.000000	0.000000	0.000000	0.000000	0.000000	0.000000	0.000000	0.000000	0.000000	0.000000	0.000000	0.000000	0.000000	0.000000	0.000000	0.000000	0.000000	0.000000	0.000000	0.000000	0.000000	0.000000
5.055000	-0.016973	-0.367040	0.193593	0.095453	0.048964	0.224617	-0.092028	0.027006	0.088121	0.063263	0.081670	0.027437	0.146525	0.146525	2.139410	1.269898	0.000000	0.000000	0.000000	0.000000	0.000000	0.000000	0.000000	0.000000	0.000000	0.000000	0.000000	0.000000	0.000000	0.000000	0.000000	0.000000	0.000000	0.000000	0.000000	0.000000	0.000000	0.000000
5.060000	-0.016886	-0.366757	0.193318	0.095098	0.048396	0.225592	-0.091062	0.027527	0.089171	0.062408	0.081271	0.027437	0.146525	0.146525	2.141450	1.269971	0.000000	0.000000	0.000000	0.000000	0.000000	0.000000	0.000000	0.000000	0.000000	0.000000	0.000000	0.000000	0.000000	0.000000	0.000000	0.000000	0.000000	0.000000	0.000000	0.000000	0.000000	0.000000
5.065000	-0.016802	-0.366475	0.193048	0.094746	0.047833	0.226561	-0.090106	0.028038	0.090218	0.061562	0.080878	0.027437	0.146525	0.146525	2.143453	1.270046	0.000000	0.000000	0.000000	0.000000	0.000000	0.000000	0.000000	0.000000	0.000000	0.000000	0.000000	0.000000	0.000000	0.000000	0.000000	0.000000	0.000000	0.000000	0.000000	0.000000	0.000000	0.000000
5.070000	-0.016719	-0.366195	0.192785	0.094399	0.047276	0.227522	-0.089162	0.028538	0.091260	0.060725	0.080491	0.027437	0.146525	0.146525	2.145418	1.270122	0.000000	0.000000	0.000000	0.000000	0.000000	0.000000	0.000000	0.000000	0.000000	0.000000	0.000000	0.000000	0.000000	0.000000	0.000000	0.000000	0.000000	0.000000	0.000000	0.000000	0.000000	0.000000
5.075000	-0.016639	-0.365915	0.192527	0.094054	0.046723	0.228476	-0.088229	0.029028	0.092299	0.059897	0.080110	0.027437	0.146525	0.146525	2.147344	1.270200	0.000000	0.000000	0.000000	0.000000	0.000000	0.000000	0.000000	0.000000	0.000000	0.000000	0.000000	0.000000	0.000000	0.000000	0.000000	0.000000	0.000000	0.000000	0.000000	0.000000	0.000000	0.000000
5.080000	-0.016561	-0.365636	0.192277	0.093714	0.046176	0.229423	-0.087307	0.029506	0.093335	0.059078	0.079734	0.027437	0.146525	0.146525	2.149232	1.270279	0.000000	0.000000	0.000000	0.000000	0.000000	0.000000	0.000000	0.000000	0.000000	0.000000	0.000000	0.000000	0.000000	0.000000	0.000000	0.000000	0.000000	0.000000	0.000000	0.000000	0.000000	0.000000
5.085000	-0.016484	-0.365359	0.192033	0.093377	0.045633	0.230362	-0.086398	0.029974	0.094367	0.058270	0.079364	0.027437	0.146525	0.146525	2.151081	1.270359	0.000000	0.000000	0.000000	0.000000	0.000000	0.000000	0.000000	0.000000	0.000000	0.000000	0.000000	0.000000	0.000000	0.000000	0.000000	0.000000	0.000000	0.000000	0.000000	0.000000	0.000000	0.000000
5.090000	-0.016411	-0.365083	0.191796	0.093044	0.045097	0.231295	-0.085500	0.030430	0.095395	0.057470	0.079001	0.027437	0.146525	0.146525	2.152892	1.270441	0.000000	0.000000	0.000000	0.000000	0.000000	0.000000	0.000000	0.000000	0.000000	0.000000	0.000000	0.000000	0.000000	0.000000	0.000000	0.000000	0.000000	0.000000	0.000000	0.000000	0.000000	0.000000
